<svg id="svg" version="1.1" width="478" height="100" viewBox="0 0 478 100" xmlns="http://www.w3.org/2000/svg"><path d="M91.422 19.750 C 91.083 21.262,90.436 23.962,89.984 25.750 L 89.161 29.000 95.969 29.000 L 102.777 29.000 103.457 25.250 C 103.831 23.188,104.380 20.488,104.677 19.250 C 105.195 17.090,104.954 17.000,98.627 17.000 C 92.255 17.000,92.018 17.091,91.422 19.750 M397.083 22.049 C 396.487 24.826,396.000 27.526,396.000 28.049 C 396.000 28.572,398.888 29.000,402.417 29.000 L 408.834 29.000 409.917 23.951 C 410.513 21.174,411.000 18.474,411.000 17.951 C 411.000 17.428,408.112 17.000,404.583 17.000 L 398.166 17.000 397.083 22.049 M21.599 50.250 C 17.873 67.988,14.590 83.513,14.304 84.750 L 13.783 87.000 39.785 87.000 C 60.898 87.000,65.885 86.742,66.313 85.628 C 66.602 84.873,67.151 82.173,67.533 79.628 L 68.227 75.000 49.236 75.000 L 30.244 75.000 31.618 68.250 C 32.374 64.537,33.227 60.487,33.515 59.250 C 34.032 57.027,34.237 57.000,50.847 57.000 L 67.657 57.000 68.828 51.924 C 69.473 49.132,70.000 46.432,70.000 45.924 C 70.000 45.396,62.925 45.000,53.500 45.000 C 40.943 45.000,37.010 44.701,37.044 43.750 C 37.068 43.063,37.648 39.800,38.334 36.500 L 39.580 30.500 58.180 30.228 L 76.779 29.957 77.470 25.350 C 77.850 22.817,78.398 20.127,78.687 19.372 C 79.125 18.231,74.926 18.000,53.794 18.000 L 28.375 18.000 21.599 50.250 M111.621 50.250 C 107.893 67.988,104.605 83.513,104.314 84.750 C 103.804 86.910,104.048 87.000,110.392 87.000 C 114.026 87.000,117.014 86.888,117.031 86.750 C 117.048 86.612,120.345 71.088,124.357 52.250 L 131.651 18.000 125.025 18.000 L 118.398 18.000 111.621 50.250 M340.622 19.750 C 340.341 20.712,337.140 35.675,333.510 53.000 C 329.880 70.325,326.720 85.063,326.487 85.750 C 326.155 86.727,331.381 87.000,350.449 87.000 L 374.834 87.000 375.917 81.951 C 376.513 79.174,377.000 76.474,377.000 75.951 C 377.000 75.388,370.286 75.000,360.559 75.000 C 351.516 75.000,343.928 74.662,343.696 74.250 C 343.365 73.663,349.775 42.014,354.430 21.250 L 355.159 18.000 348.147 18.000 C 342.331 18.000,341.047 18.298,340.622 19.750 M150.480 37.357 C 139.681 42.386,131.946 55.095,131.825 68.008 C 131.756 75.279,133.295 79.338,137.652 83.378 C 143.693 88.980,157.663 89.485,166.937 84.438 C 171.460 81.976,178.000 75.098,178.000 72.803 C 178.000 72.361,174.958 72.000,171.241 72.000 C 165.627 72.000,164.275 72.330,163.266 73.946 C 161.774 76.335,155.783 78.107,151.853 77.321 C 148.043 76.559,145.000 72.581,145.000 68.365 L 145.000 65.000 162.928 65.000 L 180.856 65.000 181.543 59.506 C 182.978 48.016,179.296 39.693,171.298 36.351 C 166.089 34.175,156.298 34.648,150.480 37.357 M207.054 36.728 C 197.267 40.183,188.227 53.301,187.251 65.466 C 186.122 79.533,193.509 87.925,207.068 87.978 C 217.974 88.021,227.687 83.070,232.307 75.112 L 234.113 72.000 227.212 72.000 C 221.575 72.000,219.977 72.367,218.496 74.004 C 213.587 79.429,203.318 78.219,201.135 71.958 C 198.615 64.728,197.957 65.000,217.981 65.000 C 238.184 65.000,235.967 65.891,237.423 57.181 C 238.151 52.825,236.444 45.432,233.878 41.829 C 229.259 35.342,217.378 33.083,207.054 36.728 M272.500 36.389 C 270.850 37.110,268.063 38.911,266.306 40.391 L 263.112 43.083 263.687 39.542 L 264.262 36.000 258.198 36.000 C 253.286 36.000,252.037 36.332,251.620 37.750 C 251.337 38.712,249.030 49.400,246.494 61.500 C 243.958 73.600,241.647 84.309,241.359 85.298 C 240.886 86.921,241.488 87.066,247.589 86.798 L 254.342 86.500 257.620 71.200 C 259.527 62.301,261.797 54.447,263.046 52.426 C 268.092 44.260,281.000 43.605,281.000 51.514 C 281.000 52.818,279.425 61.137,277.500 70.000 C 275.575 78.863,274.000 86.314,274.000 86.558 C 274.000 86.801,276.895 87.000,280.433 87.000 C 285.698 87.000,286.958 86.682,287.375 85.250 C 288.991 79.709,295.000 49.530,295.000 46.960 C 295.000 42.688,292.498 38.309,289.033 36.517 C 285.462 34.670,276.591 34.602,272.500 36.389 M87.620 37.750 C 87.337 38.712,85.030 49.400,82.494 61.500 C 79.958 73.600,77.647 84.309,77.359 85.298 C 76.886 86.922,77.489 87.066,83.615 86.798 L 90.396 86.500 95.652 62.000 C 98.543 48.525,100.929 37.163,100.954 36.750 C 100.979 36.337,98.105 36.000,94.567 36.000 C 89.304 36.000,88.041 36.318,87.620 37.750 M394.000 36.507 C 394.000 37.316,383.954 84.368,383.486 85.750 C 383.175 86.668,384.853 87.000,389.808 87.000 L 396.553 87.000 401.782 62.250 C 404.658 48.638,407.009 37.163,407.006 36.750 C 407.003 36.337,404.075 36.000,400.500 36.000 C 396.925 36.000,394.000 36.228,394.000 36.507 M420.516 37.250 C 419.185 41.198,413.002 72.510,413.015 75.240 C 413.073 88.134,431.351 92.740,441.638 82.453 L 444.295 79.796 443.710 83.398 L 443.126 87.000 449.388 87.000 L 455.650 87.000 460.835 62.750 C 463.687 49.413,466.015 37.938,466.010 37.250 C 466.003 36.383,464.068 36.000,459.699 36.000 L 453.399 36.000 449.797 52.432 C 447.726 61.881,445.411 69.919,444.348 71.348 C 438.513 79.190,427.000 78.772,427.000 70.718 C 427.000 68.479,432.133 42.962,433.632 37.750 C 434.075 36.209,433.346 36.000,427.536 36.000 C 423.148 36.000,420.796 36.419,420.516 37.250 M163.713 46.050 C 166.767 47.114,169.000 50.493,169.000 54.047 C 169.000 55.867,168.245 56.000,157.943 56.000 L 146.887 56.000 148.693 52.905 C 150.828 49.247,154.551 46.383,158.013 45.737 C 159.381 45.481,160.545 45.211,160.601 45.136 C 160.656 45.061,162.057 45.472,163.713 46.050 M222.250 47.789 C 223.265 48.671,224.000 50.715,224.000 52.655 L 224.000 56.000 213.500 56.000 C 207.419 56.000,203.000 55.594,203.000 55.035 C 203.000 54.504,204.396 52.480,206.102 50.537 C 210.806 45.179,217.864 43.978,222.250 47.789 " stroke="none" fill="black" fill-rule="evenodd"/></svg>